# xmcd CD database file
#
# Track frame offsets:
#	150
#	23660
#	95622
#	123522
#	195747
#
# Disc length: 2961 seconds
#
# Revision: 1
# Processed by: cddbd v1.5.2PL0 Copyright (c) Steve Scherf et al.
# Submitted via: CDex 1.82
#
DISCID=3b0b8f05
DTITLE=Barrelhouse Jazzband - The Barrelhouse Jazzband plays Duke Ellington
DYEAR=1988
DGENRE=Jazz
TTITLE0=A date with the Duke
TTITLE1=Medley Number One
TTITLE2=I let a song go out of my heart 1
TTITLE3=Medley Number Two
TTITLE4=I let a song go out of my heart 2
EXTD=YEAR: 1988
EXTT0=
EXTT1=
EXTT2=
EXTT3=
EXTT4=
PLAYORDER=
